<svg width="16" height="16" viewBox="0 0 16 16" fill="none" xmlns="http://www.w3.org/2000/svg">
<path fill-rule="evenodd" clip-rule="evenodd" d="M3 13.4866C4.3075 12.2157 6.07667 11.4341 8.01917 11.4341C9.9425 11.4341 11.6925 12.1999 13 13.4474C11.6925 14.7182 9.92333 15.4999 7.98083 15.4999C6.0575 15.4999 4.3075 14.7341 3 13.4866Z" stroke="#99F3F5" stroke-linecap="round" stroke-linejoin="round"/>
<path d="M1.3125 11.3542C0.804167 10.3425 0.5 9.21 0.5 8C0.5 3.855 3.855 0.5 8 0.5C12.145 0.5 15.5 3.855 15.5 8C15.5 9.20833 15.1975 10.3417 14.6858 11.3525" stroke="#99F3F5" stroke-linecap="round" stroke-linejoin="round"/>
<path d="M9.76776 4.56573C10.7441 5.54204 10.7441 7.12495 9.76776 8.10126C8.79146 9.07757 7.20854 9.07757 6.23223 8.10126C5.25592 7.12495 5.25592 5.54204 6.23223 4.56573C7.20854 3.58942 8.79146 3.58942 9.76776 4.56573" stroke="#99F3F5" stroke-linecap="round" stroke-linejoin="round"/>
</svg>
